<svg xmlns="http://www.w3.org/2000/svg" width="2400" height="2400" viewBox="0 0 2400 2400"><defs><clipPath id="c0_2"><circle cx="1200.00" cy="0.00" r="2325.70"><animate attributeName="r" values="2325.70;2290.56;2234.08;2164.86;2093.44;2030.69;1986.17;1966.65;1975.10;2010.24;2066.72;2135.94;2207.36;2270.11;2314.63;2334.15;2325.70" dur="4.235s" repeatCount="indefinite"/></circle></clipPath><clipPath id="c0_1"><circle cx="1200.00" cy="0.00" r="1233.28"><animate attributeName="r" values="1233.28;1203.17;1200.35;1225.24;1274.06;1339.37;1411.23;1478.71;1531.52;1561.63;1564.45;1539.56;1490.74;1425.43;1353.57;1286.09;1233.28" dur="4.235s" repeatCount="indefinite"/></circle></clipPath><clipPath id="c0_0"><circle cx="1200.00" cy="0.00" r="614.40"><animate attributeName="r" values="614.40;684.94;744.73;784.69;798.72;784.69;744.73;684.94;614.40;543.86;484.07;444.11;430.08;444.11;484.07;543.86;614.40" dur="4.235s" repeatCount="indefinite"/></circle></clipPath></defs><rect width="2400" height="2400" fill="#64ee41"/><g fill="#550a3b" shape-rendering="crispEdges"><rect x="-42.86" y="-2" width="85.71" height="2404.00"/><rect x="128.57" y="-2" width="85.71" height="2404.00"/><rect x="300.00" y="-2" width="85.71" height="2404.00"/><rect x="471.43" y="-2" width="85.71" height="2404.00"/><rect x="642.86" y="-2" width="85.71" height="2404.00"/><rect x="814.29" y="-2" width="85.71" height="2404.00"/><rect x="985.71" y="-2" width="85.71" height="2404.00"/><rect x="1157.14" y="-2" width="85.71" height="2404.00"/><rect x="1328.57" y="-2" width="85.71" height="2404.00"/><rect x="1500.00" y="-2" width="85.71" height="2404.00"/><rect x="1671.43" y="-2" width="85.71" height="2404.00"/><rect x="1842.86" y="-2" width="85.71" height="2404.00"/><rect x="2014.29" y="-2" width="85.71" height="2404.00"/><rect x="2185.71" y="-2" width="85.71" height="2404.00"/><rect x="2357.14" y="-2" width="85.71" height="2404.00"/></g><g clip-path="url(#c0_2)"><rect width="2400" height="2400" fill="#550a3b"/><g fill="#64ee41" shape-rendering="crispEdges"><rect x="-42.86" y="-2" width="85.71" height="2404.00"/><rect x="128.57" y="-2" width="85.71" height="2404.00"/><rect x="300.00" y="-2" width="85.71" height="2404.00"/><rect x="471.43" y="-2" width="85.71" height="2404.00"/><rect x="642.86" y="-2" width="85.71" height="2404.00"/><rect x="814.29" y="-2" width="85.71" height="2404.00"/><rect x="985.71" y="-2" width="85.71" height="2404.00"/><rect x="1157.14" y="-2" width="85.71" height="2404.00"/><rect x="1328.57" y="-2" width="85.71" height="2404.00"/><rect x="1500.00" y="-2" width="85.71" height="2404.00"/><rect x="1671.43" y="-2" width="85.71" height="2404.00"/><rect x="1842.86" y="-2" width="85.71" height="2404.00"/><rect x="2014.29" y="-2" width="85.71" height="2404.00"/><rect x="2185.71" y="-2" width="85.71" height="2404.00"/><rect x="2357.14" y="-2" width="85.71" height="2404.00"/></g></g><g clip-path="url(#c0_1)"><rect width="2400" height="2400" fill="#cef2c5"/><g fill="#64ee41" shape-rendering="crispEdges"><rect x="-42.86" y="-2" width="85.71" height="2404.00"/><rect x="128.57" y="-2" width="85.71" height="2404.00"/><rect x="300.00" y="-2" width="85.71" height="2404.00"/><rect x="471.43" y="-2" width="85.71" height="2404.00"/><rect x="642.86" y="-2" width="85.71" height="2404.00"/><rect x="814.29" y="-2" width="85.71" height="2404.00"/><rect x="985.71" y="-2" width="85.71" height="2404.00"/><rect x="1157.14" y="-2" width="85.71" height="2404.00"/><rect x="1328.57" y="-2" width="85.71" height="2404.00"/><rect x="1500.00" y="-2" width="85.71" height="2404.00"/><rect x="1671.43" y="-2" width="85.71" height="2404.00"/><rect x="1842.86" y="-2" width="85.71" height="2404.00"/><rect x="2014.29" y="-2" width="85.71" height="2404.00"/><rect x="2185.71" y="-2" width="85.71" height="2404.00"/><rect x="2357.14" y="-2" width="85.71" height="2404.00"/></g></g><g clip-path="url(#c0_0)"><rect width="2400" height="2400" fill="#550a3b"/><g fill="#cef2c5" shape-rendering="crispEdges"><rect x="-42.86" y="-2" width="85.71" height="2404.00"/><rect x="128.57" y="-2" width="85.71" height="2404.00"/><rect x="300.00" y="-2" width="85.71" height="2404.00"/><rect x="471.43" y="-2" width="85.71" height="2404.00"/><rect x="642.86" y="-2" width="85.71" height="2404.00"/><rect x="814.29" y="-2" width="85.71" height="2404.00"/><rect x="985.71" y="-2" width="85.71" height="2404.00"/><rect x="1157.14" y="-2" width="85.71" height="2404.00"/><rect x="1328.57" y="-2" width="85.71" height="2404.00"/><rect x="1500.00" y="-2" width="85.71" height="2404.00"/><rect x="1671.43" y="-2" width="85.71" height="2404.00"/><rect x="1842.86" y="-2" width="85.71" height="2404.00"/><rect x="2014.29" y="-2" width="85.71" height="2404.00"/><rect x="2185.71" y="-2" width="85.71" height="2404.00"/><rect x="2357.14" y="-2" width="85.71" height="2404.00"/></g></g></svg>