<svg xmlns="http://www.w3.org/2000/svg" width="2400" height="2400" viewBox="0 0 2400 2400"><rect x="0.0" y="0.0" width="2400.0" height="2400.0" fill="#101010"/><path d="M99.0 1650.0L150.0 1749.0L150.0 1800.0L51.0 1800.0L0.0 1701.0L0.0 1650.0Z" fill="#C9C4CA"/><path d="M300.0 1749.0L201.0 1800.0L150.0 1800.0L150.0 1701.0L249.0 1650.0L300.0 1650.0Z" fill="#6F6A1C"/><path d="M399.0 1650.0L450.0 1749.0L450.0 1800.0L351.0 1800.0L300.0 1701.0L300.0 1650.0Z" fill="#6F6A1C"/><path d="M549.0 1650.0L600.0 1749.0L600.0 1800.0L501.0 1800.0L450.0 1701.0L450.0 1650.0Z" fill="#6F6A1C"/><path d="M750.0 1749.0L651.0 1800.0L600.0 1800.0L600.0 1701.0L699.0 1650.0L750.0 1650.0Z" fill="#6F6A1C"/><path d="M900.0 1749.0L801.0 1800.0L750.0 1800.0L750.0 1701.0L849.0 1650.0L900.0 1650.0Z" fill="#C9C4CA"/><path d="M1149.0 1650.0L1200.0 1749.0L1200.0 1800.0L1101.0 1800.0L1050.0 1701.0L1050.0 1650.0Z" fill="#6F6A1C"/><path d="M1200.0 1701.0L1299.0 1650.0L1350.0 1650.0L1350.0 1749.0L1251.0 1800.0L1200.0 1800.0Z" fill="#C9C4CA"/><path d="M1500.0 1749.0L1401.0 1800.0L1350.0 1800.0L1350.0 1701.0L1449.0 1650.0L1500.0 1650.0Z" fill="#C9C4CA"/><path d="M1500.0 1701.0L1599.0 1650.0L1650.0 1650.0L1650.0 1749.0L1551.0 1800.0L1500.0 1800.0Z" fill="#C9C4CA"/><path d="M1749.0 1650.0L1800.0 1749.0L1800.0 1800.0L1701.0 1800.0L1650.0 1701.0L1650.0 1650.0Z" fill="#6F6A1C"/><path d="M1950.0 1749.0L1851.0 1800.0L1800.0 1800.0L1800.0 1701.0L1899.0 1650.0L1950.0 1650.0Z" fill="#C9C4CA"/><path d="M2049.0 1650.0L2100.0 1749.0L2100.0 1800.0L2001.0 1800.0L1950.0 1701.0L1950.0 1650.0Z" fill="#6F6A1C"/><path d="M2199.0 1650.0L2250.0 1749.0L2250.0 1800.0L2151.0 1800.0L2100.0 1701.0L2100.0 1650.0Z" fill="#C9C4CA"/><path d="M2349.0 1650.0L2400.0 1749.0L2400.0 1800.0L2301.0 1800.0L2250.0 1701.0L2250.0 1650.0Z" fill="#C9C4CA"/><path d="M99.0 1800.0L150.0 1899.0L150.0 1950.0L51.0 1950.0L0.0 1851.0L0.0 1800.0Z" fill="#6F6A1C"/><path d="M201.0 1950.0L150.0 1851.0L150.0 1800.0L249.0 1800.0L300.0 1899.0L300.0 1950.0Z" fill="#C9C4CA"/><path d="M399.0 1800.0L450.0 1899.0L450.0 1950.0L351.0 1950.0L300.0 1851.0L300.0 1800.0Z" fill="#C9C4CA"/><path d="M549.0 1800.0L600.0 1899.0L600.0 1950.0L501.0 1950.0L450.0 1851.0L450.0 1800.0Z" fill="#6F6A1C"/><path d="M750.0 1899.0L651.0 1950.0L600.0 1950.0L600.0 1851.0L699.0 1800.0L750.0 1800.0Z" fill="#C9C4CA"/><path d="M849.0 1800.0L900.0 1899.0L900.0 1950.0L801.0 1950.0L750.0 1851.0L750.0 1800.0Z" fill="#6F6A1C"/><path d="M1050.0 1899.0L951.0 1950.0L900.0 1950.0L900.0 1851.0L999.0 1800.0L1050.0 1800.0Z" fill="#6F6A1C"/><path d="M1149.0 1800.0L1200.0 1899.0L1200.0 1950.0L1101.0 1950.0L1050.0 1851.0L1050.0 1800.0Z" fill="#C9C4CA"/><path d="M1200.0 1851.0L1299.0 1800.0L1350.0 1800.0L1350.0 1899.0L1251.0 1950.0L1200.0 1950.0Z" fill="#6F6A1C"/><path d="M1551.0 1950.0L1500.0 1851.0L1500.0 1800.0L1599.0 1800.0L1650.0 1899.0L1650.0 1950.0Z" fill="#C9C4CA"/><path d="M1650.0 1851.0L1749.0 1800.0L1800.0 1800.0L1800.0 1899.0L1701.0 1950.0L1650.0 1950.0Z" fill="#6F6A1C"/><path d="M1800.0 1851.0L1899.0 1800.0L1950.0 1800.0L1950.0 1899.0L1851.0 1950.0L1800.0 1950.0Z" fill="#6F6A1C"/><path d="M1950.0 1851.0L2049.0 1800.0L2100.0 1800.0L2100.0 1899.0L2001.0 1950.0L1950.0 1950.0Z" fill="#C9C4CA"/><path d="M2199.0 1800.0L2250.0 1899.0L2250.0 1950.0L2151.0 1950.0L2100.0 1851.0L2100.0 1800.0Z" fill="#6F6A1C"/><path d="M2349.0 1800.0L2400.0 1899.0L2400.0 1950.0L2301.0 1950.0L2250.0 1851.0L2250.0 1800.0Z" fill="#6F6A1C"/><path d="M150.0 1950.0L150.0 2100.0L0.0 1950.0Z" fill="#A2218E"/><path d="M150.0 2025.0L225.0 2025.0L225.0 1950.0L300.0 1950.0L300.0 2025.0L225.0 2025.0L225.0 2100.0L150.0 2100.0Z" fill="#A2218E"/><path d="M300.0 2025.0L375.0 2025.0L375.0 1950.0L450.0 1950.0L450.0 2025.0L375.0 2025.0L375.0 2100.0L300.0 2100.0Z" fill="#A2218E"/><path d="M600.0 1950.0L600.0 2100.0L450.0 1950.0Z" fill="#A2218E"/><path d="M600.0 2025.0L675.0 2025.0L675.0 1950.0L750.0 1950.0L750.0 2025.0L675.0 2025.0L675.0 2100.0L600.0 2100.0Z" fill="#F4786E"/><path d="M900.0 1950.0L900.0 2100.0L750.0 1950.0Z" fill="#A2218E"/><path d="M975.0 1950.0L975.0 2025.0L1050.0 2025.0L1050.0 2100.0L975.0 2100.0L975.0 2025.0L900.0 2025.0L900.0 1950.0Z" fill="#A2218E"/><path d="M1125.0 1950.0L1125.0 2025.0L1200.0 2025.0L1200.0 2100.0L1125.0 2100.0L1125.0 2025.0L1050.0 2025.0L1050.0 1950.0Z" fill="#A2218E"/><path d="M1275.0 1950.0L1275.0 2025.0L1350.0 2025.0L1350.0 2100.0L1275.0 2100.0L1275.0 2025.0L1200.0 2025.0L1200.0 1950.0Z" fill="#F4786E"/><path d="M1425.0 1950.0L1425.0 2025.0L1500.0 2025.0L1500.0 2100.0L1425.0 2100.0L1425.0 2025.0L1350.0 2025.0L1350.0 1950.0Z" fill="#A2218E"/><path d="M1650.0 2100.0L1500.0 2100.0L1650.0 1950.0Z" fill="#A2218E"/><path d="M1800.0 1950.0L1800.0 2100.0L1650.0 1950.0Z" fill="#F4786E"/><path d="M1800.0 1950.0L1950.0 1950.0L1800.0 2100.0Z" fill="#F4786E"/><path d="M2100.0 1950.0L2100.0 2100.0L1950.0 1950.0Z" fill="#F4786E"/><path d="M2175.0 2100.0L2175.0 2025.0L2100.0 2025.0L2100.0 1950.0L2175.0 1950.0L2175.0 2025.0L2250.0 2025.0L2250.0 2100.0Z" fill="#F4786E"/><path d="M2400.0 2100.0L2250.0 2100.0L2400.0 1950.0Z" fill="#F4786E"/><path d="M150.0 2100.0L150.0 2250.0L0.0 2100.0Z" fill="#A2218E"/><path d="M225.0 2250.0L225.0 2175.0L150.0 2175.0L150.0 2100.0L225.0 2100.0L225.0 2175.0L300.0 2175.0L300.0 2250.0Z" fill="#F4786E"/><path d="M300.0 2100.0L450.0 2100.0L300.0 2250.0Z" fill="#F4786E"/><path d="M600.0 2175.0L525.0 2175.0L525.0 2250.0L450.0 2250.0L450.0 2175.0L525.0 2175.0L525.0 2100.0L600.0 2100.0Z" fill="#F4786E"/><path d="M675.0 2100.0L675.0 2175.0L750.0 2175.0L750.0 2250.0L675.0 2250.0L675.0 2175.0L600.0 2175.0L600.0 2100.0Z" fill="#F4786E"/><path d="M750.0 2100.0L900.0 2100.0L750.0 2250.0Z" fill="#A2218E"/><path d="M975.0 2100.0L975.0 2175.0L1050.0 2175.0L1050.0 2250.0L975.0 2250.0L975.0 2175.0L900.0 2175.0L900.0 2100.0Z" fill="#A2218E"/><path d="M1125.0 2250.0L1125.0 2175.0L1050.0 2175.0L1050.0 2100.0L1125.0 2100.0L1125.0 2175.0L1200.0 2175.0L1200.0 2250.0Z" fill="#F4786E"/><path d="M1200.0 2175.0L1275.0 2175.0L1275.0 2100.0L1350.0 2100.0L1350.0 2175.0L1275.0 2175.0L1275.0 2250.0L1200.0 2250.0Z" fill="#F4786E"/><path d="M1500.0 2250.0L1350.0 2250.0L1500.0 2100.0Z" fill="#A2218E"/><path d="M1500.0 2250.0L1500.0 2100.0L1650.0 2250.0Z" fill="#F4786E"/><path d="M1800.0 2100.0L1800.0 2250.0L1650.0 2100.0Z" fill="#F4786E"/><path d="M1875.0 2100.0L1875.0 2175.0L1950.0 2175.0L1950.0 2250.0L1875.0 2250.0L1875.0 2175.0L1800.0 2175.0L1800.0 2100.0Z" fill="#F4786E"/><path d="M2100.0 2250.0L1950.0 2250.0L2100.0 2100.0Z" fill="#A2218E"/><path d="M2250.0 2100.0L2250.0 2250.0L2100.0 2100.0Z" fill="#A2218E"/><path d="M2400.0 2100.0L2400.0 2250.0L2250.0 2100.0Z" fill="#F4786E"/><path d="M150.0 2400.0L75.0 2325.0L150.0 2250.0L99.0 2250.0L24.0 2325.0L99.0 2400.0Z" fill="#A2218E"/><path d="M300.0 2400.0L225.0 2325.0L300.0 2250.0L249.0 2250.0L174.0 2325.0L249.0 2400.0Z" fill="#F4786E"/><path d="M300.0 2250.0L375.0 2325.0L300.0 2400.0L351.0 2400.0L426.0 2325.0L351.0 2250.0Z" fill="#F4786E"/><path d="M450.0 2295.0L555.0 2295.0L555.0 2400.0L495.0 2400.0L495.0 2355.0L450.0 2355.0Z" fill="#A2218E"/><path d="M750.0 2349.0L651.0 2400.0L600.0 2400.0L600.0 2301.0L699.0 2250.0L750.0 2250.0Z" fill="#F4786E"/><path d="M855.0 2250.0L855.0 2355.0L750.0 2355.0L750.0 2295.0L795.0 2295.0L795.0 2250.0Z" fill="#A2218E"/><path d="M999.0 2250.0L1050.0 2349.0L1050.0 2400.0L951.0 2400.0L900.0 2301.0L900.0 2250.0Z" fill="#F4786E"/><path d="M1050.0 2301.0L1149.0 2250.0L1200.0 2250.0L1200.0 2349.0L1101.0 2400.0L1050.0 2400.0Z" fill="#A2218E"/><path d="M1350.0 2250.0L1275.0 2325.0L1200.0 2250.0L1200.0 2301.0L1275.0 2376.0L1350.0 2301.0Z" fill="#F4786E"/><path d="M1350.0 2301.0L1449.0 2250.0L1500.0 2250.0L1500.0 2349.0L1401.0 2400.0L1350.0 2400.0Z" fill="#A2218E"/><path d="M1500.0 2301.0L1599.0 2250.0L1650.0 2250.0L1650.0 2349.0L1551.0 2400.0L1500.0 2400.0Z" fill="#A2218E"/><path d="M1650.0 2295.0L1755.0 2295.0L1755.0 2400.0L1695.0 2400.0L1695.0 2355.0L1650.0 2355.0Z" fill="#F4786E"/><path d="M1950.0 2355.0L1845.0 2355.0L1845.0 2250.0L1905.0 2250.0L1905.0 2295.0L1950.0 2295.0Z" fill="#F4786E"/><path d="M2049.0 2250.0L2100.0 2349.0L2100.0 2400.0L2001.0 2400.0L1950.0 2301.0L1950.0 2250.0Z" fill="#A2218E"/><path d="M2250.0 2400.0L2175.0 2325.0L2250.0 2250.0L2199.0 2250.0L2124.0 2325.0L2199.0 2400.0Z" fill="#F4786E"/><path d="M2349.0 2250.0L2400.0 2349.0L2400.0 2400.0L2301.0 2400.0L2250.0 2301.0L2250.0 2250.0Z" fill="#F4786E"/><path d="M150.0 105.0L45.0 105.0L45.0 0.0L105.0 0.0L105.0 45.0L150.0 45.0Z" fill="#A2218E"/><path d="M150.0 150.0L225.0 75.0L300.0 150.0L300.0 99.0L225.0 24.0L150.0 99.0Z" fill="#F4786E"/><path d="M300.0 0.0L375.0 75.0L300.0 150.0L351.0 150.0L426.0 75.0L351.0 0.0Z" fill="#F4786E"/><path d="M600.0 150.0L525.0 75.0L600.0 0.0L549.0 0.0L474.0 75.0L549.0 150.0Z" fill="#F4786E"/><path d="M900.0 105.0L795.0 105.0L795.0 0.0L855.0 0.0L855.0 45.0L900.0 45.0Z" fill="#A2218E"/><path d="M945.0 150.0L945.0 45.0L1050.0 45.0L1050.0 105.0L1005.0 105.0L1005.0 150.0Z" fill="#F4786E"/><path d="M1149.0 0.0L1200.0 99.0L1200.0 150.0L1101.0 150.0L1050.0 51.0L1050.0 0.0Z" fill="#F4786E"/><path d="M1305.0 0.0L1305.0 105.0L1200.0 105.0L1200.0 45.0L1245.0 45.0L1245.0 0.0Z" fill="#A2218E"/><path d="M1500.0 0.0L1425.0 75.0L1350.0 0.0L1350.0 51.0L1425.0 126.0L1500.0 51.0Z" fill="#F4786E"/><path d="M1605.0 0.0L1605.0 105.0L1500.0 105.0L1500.0 45.0L1545.0 45.0L1545.0 0.0Z" fill="#F4786E"/><path d="M1800.0 0.0L1725.0 75.0L1650.0 0.0L1650.0 51.0L1725.0 126.0L1800.0 51.0Z" fill="#A2218E"/><path d="M1800.0 0.0L1875.0 75.0L1800.0 150.0L1851.0 150.0L1926.0 75.0L1851.0 0.0Z" fill="#A2218E"/><path d="M2100.0 150.0L2025.0 75.0L2100.0 0.0L2049.0 0.0L1974.0 75.0L2049.0 150.0Z" fill="#A2218E"/><path d="M2199.0 0.0L2250.0 99.0L2250.0 150.0L2151.0 150.0L2100.0 51.0L2100.0 0.0Z" fill="#A2218E"/><path d="M2349.0 0.0L2400.0 99.0L2400.0 150.0L2301.0 150.0L2250.0 51.0L2250.0 0.0Z" fill="#A2218E"/><path d="M99.0 150.0L150.0 249.0L150.0 300.0L51.0 300.0L0.0 201.0L0.0 150.0Z" fill="#A2218E"/><path d="M300.0 150.0L225.0 225.0L150.0 150.0L150.0 201.0L225.0 276.0L300.0 201.0Z" fill="#A2218E"/><path d="M300.0 150.0L375.0 225.0L300.0 300.0L351.0 300.0L426.0 225.0L351.0 150.0Z" fill="#F4786E"/><path d="M600.0 255.0L495.0 255.0L495.0 150.0L555.0 150.0L555.0 195.0L600.0 195.0Z" fill="#F4786E"/><path d="M699.0 150.0L750.0 249.0L750.0 300.0L651.0 300.0L600.0 201.0L600.0 150.0Z" fill="#A2218E"/><path d="M900.0 249.0L801.0 300.0L750.0 300.0L750.0 201.0L849.0 150.0L900.0 150.0Z" fill="#A2218E"/><path d="M945.0 300.0L945.0 195.0L1050.0 195.0L1050.0 255.0L1005.0 255.0L1005.0 300.0Z" fill="#A2218E"/><path d="M1050.0 150.0L1125.0 225.0L1050.0 300.0L1101.0 300.0L1176.0 225.0L1101.0 150.0Z" fill="#F4786E"/><path d="M1350.0 300.0L1275.0 225.0L1350.0 150.0L1299.0 150.0L1224.0 225.0L1299.0 300.0Z" fill="#A2218E"/><path d="M1500.0 249.0L1401.0 300.0L1350.0 300.0L1350.0 201.0L1449.0 150.0L1500.0 150.0Z" fill="#F4786E"/><path d="M1500.0 195.0L1605.0 195.0L1605.0 300.0L1545.0 300.0L1545.0 255.0L1500.0 255.0Z" fill="#A2218E"/><path d="M1800.0 249.0L1701.0 300.0L1650.0 300.0L1650.0 201.0L1749.0 150.0L1800.0 150.0Z" fill="#F4786E"/><path d="M1950.0 255.0L1845.0 255.0L1845.0 150.0L1905.0 150.0L1905.0 195.0L1950.0 195.0Z" fill="#A2218E"/><path d="M2100.0 300.0L2025.0 225.0L2100.0 150.0L2049.0 150.0L1974.0 225.0L2049.0 300.0Z" fill="#F4786E"/><path d="M2250.0 255.0L2145.0 255.0L2145.0 150.0L2205.0 150.0L2205.0 195.0L2250.0 195.0Z" fill="#A2218E"/><path d="M2250.0 150.0L2325.0 225.0L2250.0 300.0L2301.0 300.0L2376.0 225.0L2301.0 150.0Z" fill="#A2218E"/><path d="M0.0 351.0L99.0 300.0L150.0 300.0L150.0 399.0L51.0 450.0L0.0 450.0Z" fill="#F4786E"/><path d="M300.0 405.0L195.0 405.0L195.0 300.0L255.0 300.0L255.0 345.0L300.0 345.0Z" fill="#A2218E"/><path d="M300.0 345.0L405.0 345.0L405.0 450.0L345.0 450.0L345.0 405.0L300.0 405.0Z" fill="#F4786E"/><path d="M600.0 300.0L525.0 375.0L450.0 300.0L450.0 351.0L525.0 426.0L600.0 351.0Z" fill="#A2218E"/><path d="M750.0 399.0L651.0 450.0L600.0 450.0L600.0 351.0L699.0 300.0L750.0 300.0Z" fill="#F4786E"/><path d="M801.0 450.0L750.0 351.0L750.0 300.0L849.0 300.0L900.0 399.0L900.0 450.0Z" fill="#A2218E"/><path d="M1005.0 300.0L1005.0 405.0L900.0 405.0L900.0 345.0L945.0 345.0L945.0 300.0Z" fill="#F4786E"/><path d="M1050.0 351.0L1149.0 300.0L1200.0 300.0L1200.0 399.0L1101.0 450.0L1050.0 450.0Z" fill="#A2218E"/><path d="M1449.0 300.0L1500.0 399.0L1500.0 450.0L1401.0 450.0L1350.0 351.0L1350.0 300.0Z" fill="#F4786E"/><path d="M1551.0 450.0L1500.0 351.0L1500.0 300.0L1599.0 300.0L1650.0 399.0L1650.0 450.0Z" fill="#F4786E"/><path d="M1755.0 300.0L1755.0 405.0L1650.0 405.0L1650.0 345.0L1695.0 345.0L1695.0 300.0Z" fill="#A2218E"/><path d="M1950.0 300.0L1875.0 375.0L1800.0 300.0L1800.0 351.0L1875.0 426.0L1950.0 351.0Z" fill="#F4786E"/><path d="M2100.0 450.0L2025.0 375.0L2100.0 300.0L2049.0 300.0L1974.0 375.0L2049.0 450.0Z" fill="#A2218E"/><path d="M2100.0 345.0L2205.0 345.0L2205.0 450.0L2145.0 450.0L2145.0 405.0L2100.0 405.0Z" fill="#F4786E"/><path d="M2349.0 300.0L2400.0 399.0L2400.0 450.0L2301.0 450.0L2250.0 351.0L2250.0 300.0Z" fill="#F4786E"/><path d="M0.0 495.0L105.0 495.0L105.0 600.0L45.0 600.0L45.0 555.0L0.0 555.0Z" fill="#FF7A1F"/><path d="M300.0 555.0L195.0 555.0L195.0 450.0L255.0 450.0L255.0 495.0L300.0 495.0Z" fill="#FF7A1F"/><path d="M300.0 495.0L405.0 495.0L405.0 600.0L345.0 600.0L345.0 555.0L300.0 555.0Z" fill="#FF7A1F"/><path d="M750.0 555.0L645.0 555.0L645.0 450.0L705.0 450.0L705.0 495.0L750.0 495.0Z" fill="#6F6A1C"/><path d="M900.0 555.0L795.0 555.0L795.0 450.0L855.0 450.0L855.0 495.0L900.0 495.0Z" fill="#FF7A1F"/><path d="M900.0 495.0L1005.0 495.0L1005.0 600.0L945.0 600.0L945.0 555.0L900.0 555.0Z" fill="#6F6A1C"/><path d="M1155.0 450.0L1155.0 555.0L1050.0 555.0L1050.0 495.0L1095.0 495.0L1095.0 450.0Z" fill="#6F6A1C"/><path d="M1305.0 450.0L1305.0 555.0L1200.0 555.0L1200.0 495.0L1245.0 495.0L1245.0 450.0Z" fill="#6F6A1C"/><path d="M1500.0 555.0L1395.0 555.0L1395.0 450.0L1455.0 450.0L1455.0 495.0L1500.0 495.0Z" fill="#FF7A1F"/><path d="M1500.0 495.0L1605.0 495.0L1605.0 600.0L1545.0 600.0L1545.0 555.0L1500.0 555.0Z" fill="#6F6A1C"/><path d="M1650.0 495.0L1755.0 495.0L1755.0 600.0L1695.0 600.0L1695.0 555.0L1650.0 555.0Z" fill="#FF7A1F"/><path d="M1950.0 555.0L1845.0 555.0L1845.0 450.0L1905.0 450.0L1905.0 495.0L1950.0 495.0Z" fill="#6F6A1C"/><path d="M1950.0 495.0L2055.0 495.0L2055.0 600.0L1995.0 600.0L1995.0 555.0L1950.0 555.0Z" fill="#FF7A1F"/><path d="M2355.0 450.0L2355.0 555.0L2250.0 555.0L2250.0 495.0L2295.0 495.0L2295.0 450.0Z" fill="#FF7A1F"/><path d="M150.0 705.0L45.0 705.0L45.0 600.0L105.0 600.0L105.0 645.0L150.0 645.0Z" fill="#FF7A1F"/><path d="M195.0 750.0L195.0 645.0L300.0 645.0L300.0 705.0L255.0 705.0L255.0 750.0Z" fill="#6F6A1C"/><path d="M450.0 705.0L345.0 705.0L345.0 600.0L405.0 600.0L405.0 645.0L450.0 645.0Z" fill="#6F6A1C"/><path d="M600.0 705.0L495.0 705.0L495.0 600.0L555.0 600.0L555.0 645.0L600.0 645.0Z" fill="#FF7A1F"/><path d="M645.0 750.0L645.0 645.0L750.0 645.0L750.0 705.0L705.0 705.0L705.0 750.0Z" fill="#6F6A1C"/><path d="M750.0 645.0L855.0 645.0L855.0 750.0L795.0 750.0L795.0 705.0L750.0 705.0Z" fill="#FF7A1F"/><path d="M1005.0 600.0L1005.0 705.0L900.0 705.0L900.0 645.0L945.0 645.0L945.0 600.0Z" fill="#FF7A1F"/><path d="M1200.0 705.0L1095.0 705.0L1095.0 600.0L1155.0 600.0L1155.0 645.0L1200.0 645.0Z" fill="#6F6A1C"/><path d="M1305.0 600.0L1305.0 705.0L1200.0 705.0L1200.0 645.0L1245.0 645.0L1245.0 600.0Z" fill="#FF7A1F"/><path d="M1500.0 705.0L1395.0 705.0L1395.0 600.0L1455.0 600.0L1455.0 645.0L1500.0 645.0Z" fill="#6F6A1C"/><path d="M1605.0 600.0L1605.0 705.0L1500.0 705.0L1500.0 645.0L1545.0 645.0L1545.0 600.0Z" fill="#FF7A1F"/><path d="M1755.0 600.0L1755.0 705.0L1650.0 705.0L1650.0 645.0L1695.0 645.0L1695.0 600.0Z" fill="#FF7A1F"/><path d="M1950.0 705.0L1845.0 705.0L1845.0 600.0L1905.0 600.0L1905.0 645.0L1950.0 645.0Z" fill="#FF7A1F"/><path d="M2055.0 600.0L2055.0 705.0L1950.0 705.0L1950.0 645.0L1995.0 645.0L1995.0 600.0Z" fill="#6F6A1C"/><path d="M2100.0 645.0L2205.0 645.0L2205.0 750.0L2145.0 750.0L2145.0 705.0L2100.0 705.0Z" fill="#6F6A1C"/><path d="M2355.0 600.0L2355.0 705.0L2250.0 705.0L2250.0 645.0L2295.0 645.0L2295.0 600.0Z" fill="#FF7A1F"/><path d="M150.0 900.0L0.0 900.0L150.0 750.0Z" fill="#F4786E"/><path d="M195.0 900.0L195.0 795.0L300.0 795.0L300.0 855.0L255.0 855.0L255.0 900.0Z" fill="#F4786E"/><path d="M300.0 795.0L405.0 795.0L405.0 900.0L345.0 900.0L345.0 855.0L300.0 855.0Z" fill="#F4786E"/><path d="M600.0 855.0L495.0 855.0L495.0 750.0L555.0 750.0L555.0 795.0L600.0 795.0Z" fill="#F4786E"/><path d="M600.0 795.0L705.0 795.0L705.0 900.0L645.0 900.0L645.0 855.0L600.0 855.0Z" fill="#FF7A1F"/><path d="M750.0 750.0L900.0 750.0L750.0 900.0Z" fill="#FF7A1F"/><path d="M900.0 795.0L1005.0 795.0L1005.0 900.0L945.0 900.0L945.0 855.0L900.0 855.0Z" fill="#F4786E"/><path d="M1155.0 750.0L1155.0 855.0L1050.0 855.0L1050.0 795.0L1095.0 795.0L1095.0 750.0Z" fill="#FF7A1F"/><path d="M1305.0 750.0L1305.0 855.0L1200.0 855.0L1200.0 795.0L1245.0 795.0L1245.0 750.0Z" fill="#FF7A1F"/><path d="M1500.0 855.0L1395.0 855.0L1395.0 750.0L1455.0 750.0L1455.0 795.0L1500.0 795.0Z" fill="#F4786E"/><path d="M1500.0 795.0L1605.0 795.0L1605.0 900.0L1545.0 900.0L1545.0 855.0L1500.0 855.0Z" fill="#FF7A1F"/><path d="M1650.0 795.0L1755.0 795.0L1755.0 900.0L1695.0 900.0L1695.0 855.0L1650.0 855.0Z" fill="#FF7A1F"/><path d="M1800.0 900.0L1800.0 750.0L1950.0 900.0Z" fill="#FF7A1F"/><path d="M2055.0 750.0L2055.0 855.0L1950.0 855.0L1950.0 795.0L1995.0 795.0L1995.0 750.0Z" fill="#FF7A1F"/><path d="M2250.0 750.0L2250.0 900.0L2100.0 750.0Z" fill="#FF7A1F"/><path d="M2400.0 855.0L2295.0 855.0L2295.0 750.0L2355.0 750.0L2355.0 795.0L2400.0 795.0Z" fill="#F4786E"/><path d="M150.0 1050.0L0.0 1050.0L150.0 900.0Z" fill="#FF7A1F"/><path d="M300.0 1005.0L195.0 1005.0L195.0 900.0L255.0 900.0L255.0 945.0L300.0 945.0Z" fill="#FF7A1F"/><path d="M600.0 1050.0L450.0 1050.0L600.0 900.0Z" fill="#F4786E"/><path d="M750.0 1050.0L600.0 1050.0L750.0 900.0Z" fill="#F4786E"/><path d="M750.0 945.0L855.0 945.0L855.0 1050.0L795.0 1050.0L795.0 1005.0L750.0 1005.0Z" fill="#F4786E"/><path d="M1050.0 900.0L1050.0 1050.0L900.0 900.0Z" fill="#FF7A1F"/><path d="M1200.0 1050.0L1050.0 1050.0L1200.0 900.0Z" fill="#FF7A1F"/><path d="M1500.0 1050.0L1350.0 1050.0L1500.0 900.0Z" fill="#F4786E"/><path d="M1650.0 1050.0L1500.0 1050.0L1650.0 900.0Z" fill="#F4786E"/><path d="M1800.0 900.0L1800.0 1050.0L1650.0 900.0Z" fill="#FF7A1F"/><path d="M2100.0 1050.0L1950.0 1050.0L2100.0 900.0Z" fill="#FF7A1F"/><path d="M2250.0 1050.0L2100.0 1050.0L2250.0 900.0Z" fill="#FF7A1F"/><path d="M2355.0 900.0L2355.0 1005.0L2250.0 1005.0L2250.0 945.0L2295.0 945.0L2295.0 900.0Z" fill="#F4786E"/><path d="M150.0 1050.0L150.0 1200.0L75.0 1200.0L75.0 1050.0Z" fill="#D6FF3C"/><path d="M300.0 1125.0L225.0 1125.0L225.0 1200.0L150.0 1200.0L150.0 1125.0L225.0 1125.0L225.0 1050.0L300.0 1050.0Z" fill="#C9C4CA"/><path d="M300.0 1050.0L450.0 1050.0L450.0 1125.0L300.0 1125.0Z" fill="#C9C4CA"/><path d="M450.0 1125.0L525.0 1125.0L525.0 1050.0L600.0 1050.0L600.0 1125.0L525.0 1125.0L525.0 1200.0L450.0 1200.0Z" fill="#D6FF3C"/><path d="M750.0 1050.0L900.0 1050.0L900.0 1125.0L750.0 1125.0Z" fill="#C9C4CA"/><path d="M900.0 1125.0L975.0 1125.0L975.0 1050.0L1050.0 1050.0L1050.0 1125.0L975.0 1125.0L975.0 1200.0L900.0 1200.0Z" fill="#C9C4CA"/><path d="M1350.0 1050.0L1350.0 1200.0L1275.0 1200.0L1275.0 1050.0Z" fill="#C9C4CA"/><path d="M1350.0 1050.0L1500.0 1050.0L1500.0 1125.0L1350.0 1125.0Z" fill="#D6FF3C"/><path d="M1650.0 1050.0L1650.0 1200.0L1575.0 1200.0L1575.0 1050.0Z" fill="#C9C4CA"/><path d="M1650.0 1050.0L1800.0 1050.0L1800.0 1125.0L1650.0 1125.0Z" fill="#C9C4CA"/><path d="M1800.0 1200.0L1800.0 1050.0L1875.0 1050.0L1875.0 1200.0Z" fill="#C9C4CA"/><path d="M1950.0 1125.0L2025.0 1125.0L2025.0 1050.0L2100.0 1050.0L2100.0 1125.0L2025.0 1125.0L2025.0 1200.0L1950.0 1200.0Z" fill="#D6FF3C"/><path d="M2175.0 1050.0L2175.0 1125.0L2250.0 1125.0L2250.0 1200.0L2175.0 1200.0L2175.0 1125.0L2100.0 1125.0L2100.0 1050.0Z" fill="#C9C4CA"/><path d="M2325.0 1050.0L2325.0 1125.0L2400.0 1125.0L2400.0 1200.0L2325.0 1200.0L2325.0 1125.0L2250.0 1125.0L2250.0 1050.0Z" fill="#D6FF3C"/><path d="M150.0 1200.0L150.0 1350.0L75.0 1350.0L75.0 1200.0Z" fill="#C9C4CA"/><path d="M150.0 1200.0L300.0 1200.0L300.0 1275.0L150.0 1275.0Z" fill="#C9C4CA"/><path d="M300.0 1200.0L450.0 1200.0L450.0 1275.0L300.0 1275.0Z" fill="#D6FF3C"/><path d="M600.0 1275.0L675.0 1275.0L675.0 1200.0L750.0 1200.0L750.0 1275.0L675.0 1275.0L675.0 1350.0L600.0 1350.0Z" fill="#D6FF3C"/><path d="M975.0 1200.0L975.0 1275.0L1050.0 1275.0L1050.0 1350.0L975.0 1350.0L975.0 1275.0L900.0 1275.0L900.0 1200.0Z" fill="#D6FF3C"/><path d="M1200.0 1275.0L1125.0 1275.0L1125.0 1350.0L1050.0 1350.0L1050.0 1275.0L1125.0 1275.0L1125.0 1200.0L1200.0 1200.0Z" fill="#D6FF3C"/><path d="M1350.0 1275.0L1275.0 1275.0L1275.0 1350.0L1200.0 1350.0L1200.0 1275.0L1275.0 1275.0L1275.0 1200.0L1350.0 1200.0Z" fill="#D6FF3C"/><path d="M1425.0 1350.0L1425.0 1275.0L1350.0 1275.0L1350.0 1200.0L1425.0 1200.0L1425.0 1275.0L1500.0 1275.0L1500.0 1350.0Z" fill="#D6FF3C"/><path d="M1500.0 1200.0L1650.0 1200.0L1650.0 1275.0L1500.0 1275.0Z" fill="#D6FF3C"/><path d="M1725.0 1200.0L1725.0 1275.0L1800.0 1275.0L1800.0 1350.0L1725.0 1350.0L1725.0 1275.0L1650.0 1275.0L1650.0 1200.0Z" fill="#C9C4CA"/><path d="M1800.0 1200.0L1950.0 1200.0L1950.0 1275.0L1800.0 1275.0Z" fill="#D6FF3C"/><path d="M1950.0 1350.0L1950.0 1200.0L2025.0 1200.0L2025.0 1350.0Z" fill="#C9C4CA"/><path d="M2100.0 1200.0L2250.0 1200.0L2250.0 1275.0L2100.0 1275.0Z" fill="#C9C4CA"/><path d="M2400.0 1275.0L2325.0 1275.0L2325.0 1350.0L2250.0 1350.0L2250.0 1275.0L2325.0 1275.0L2325.0 1200.0L2400.0 1200.0Z" fill="#D6FF3C"/><path d="M75.0 1350.0L75.0 1425.0L150.0 1425.0L150.0 1500.0L75.0 1500.0L75.0 1425.0L0.0 1425.0L0.0 1350.0Z" fill="#A2218E"/><path d="M150.0 1425.0L225.0 1425.0L225.0 1350.0L300.0 1350.0L300.0 1425.0L225.0 1425.0L225.0 1500.0L150.0 1500.0Z" fill="#A2218E"/><path d="M375.0 1350.0L375.0 1425.0L450.0 1425.0L450.0 1500.0L375.0 1500.0L375.0 1425.0L300.0 1425.0L300.0 1350.0Z" fill="#A2218E"/><path d="M525.0 1500.0L525.0 1425.0L450.0 1425.0L450.0 1350.0L525.0 1350.0L525.0 1425.0L600.0 1425.0L600.0 1500.0Z" fill="#F4786E"/><path d="M675.0 1350.0L675.0 1425.0L750.0 1425.0L750.0 1500.0L675.0 1500.0L675.0 1425.0L600.0 1425.0L600.0 1350.0Z" fill="#F4786E"/><path d="M750.0 1425.0L825.0 1425.0L825.0 1350.0L900.0 1350.0L900.0 1425.0L825.0 1425.0L825.0 1500.0L750.0 1500.0Z" fill="#F4786E"/><path d="M975.0 1350.0L975.0 1425.0L1050.0 1425.0L1050.0 1500.0L975.0 1500.0L975.0 1425.0L900.0 1425.0L900.0 1350.0Z" fill="#A2218E"/><path d="M1125.0 1500.0L1125.0 1425.0L1050.0 1425.0L1050.0 1350.0L1125.0 1350.0L1125.0 1425.0L1200.0 1425.0L1200.0 1500.0Z" fill="#F4786E"/><path d="M1200.0 1425.0L1275.0 1425.0L1275.0 1350.0L1350.0 1350.0L1350.0 1425.0L1275.0 1425.0L1275.0 1500.0L1200.0 1500.0Z" fill="#F4786E"/><path d="M1500.0 1425.0L1425.0 1425.0L1425.0 1500.0L1350.0 1500.0L1350.0 1425.0L1425.0 1425.0L1425.0 1350.0L1500.0 1350.0Z" fill="#A2218E"/><path d="M1650.0 1425.0L1575.0 1425.0L1575.0 1500.0L1500.0 1500.0L1500.0 1425.0L1575.0 1425.0L1575.0 1350.0L1650.0 1350.0Z" fill="#A2218E"/><path d="M1650.0 1425.0L1725.0 1425.0L1725.0 1350.0L1800.0 1350.0L1800.0 1425.0L1725.0 1425.0L1725.0 1500.0L1650.0 1500.0Z" fill="#F4786E"/><path d="M1875.0 1500.0L1875.0 1425.0L1800.0 1425.0L1800.0 1350.0L1875.0 1350.0L1875.0 1425.0L1950.0 1425.0L1950.0 1500.0Z" fill="#F4786E"/><path d="M2025.0 1350.0L2025.0 1425.0L2100.0 1425.0L2100.0 1500.0L2025.0 1500.0L2025.0 1425.0L1950.0 1425.0L1950.0 1350.0Z" fill="#A2218E"/><path d="M2250.0 1425.0L2175.0 1425.0L2175.0 1500.0L2100.0 1500.0L2100.0 1425.0L2175.0 1425.0L2175.0 1350.0L2250.0 1350.0Z" fill="#A2218E"/><path d="M2400.0 1425.0L2325.0 1425.0L2325.0 1500.0L2250.0 1500.0L2250.0 1425.0L2325.0 1425.0L2325.0 1350.0L2400.0 1350.0Z" fill="#A2218E"/><path d="M75.0 1500.0L75.0 1575.0L150.0 1575.0L150.0 1650.0L75.0 1650.0L75.0 1575.0L0.0 1575.0L0.0 1500.0Z" fill="#F4786E"/><path d="M150.0 1575.0L225.0 1575.0L225.0 1500.0L300.0 1500.0L300.0 1575.0L225.0 1575.0L225.0 1650.0L150.0 1650.0Z" fill="#A2218E"/><path d="M300.0 1575.0L375.0 1575.0L375.0 1500.0L450.0 1500.0L450.0 1575.0L375.0 1575.0L375.0 1650.0L300.0 1650.0Z" fill="#F4786E"/><path d="M450.0 1575.0L525.0 1575.0L525.0 1500.0L600.0 1500.0L600.0 1575.0L525.0 1575.0L525.0 1650.0L450.0 1650.0Z" fill="#A2218E"/><path d="M600.0 1575.0L675.0 1575.0L675.0 1500.0L750.0 1500.0L750.0 1575.0L675.0 1575.0L675.0 1650.0L600.0 1650.0Z" fill="#F4786E"/><path d="M900.0 1575.0L825.0 1575.0L825.0 1650.0L750.0 1650.0L750.0 1575.0L825.0 1575.0L825.0 1500.0L900.0 1500.0Z" fill="#F4786E"/><path d="M900.0 1575.0L975.0 1575.0L975.0 1500.0L1050.0 1500.0L1050.0 1575.0L975.0 1575.0L975.0 1650.0L900.0 1650.0Z" fill="#F4786E"/><path d="M1200.0 1575.0L1125.0 1575.0L1125.0 1650.0L1050.0 1650.0L1050.0 1575.0L1125.0 1575.0L1125.0 1500.0L1200.0 1500.0Z" fill="#A2218E"/><path d="M1350.0 1575.0L1275.0 1575.0L1275.0 1650.0L1200.0 1650.0L1200.0 1575.0L1275.0 1575.0L1275.0 1500.0L1350.0 1500.0Z" fill="#A2218E"/><path d="M1350.0 1575.0L1425.0 1575.0L1425.0 1500.0L1500.0 1500.0L1500.0 1575.0L1425.0 1575.0L1425.0 1650.0L1350.0 1650.0Z" fill="#F4786E"/><path d="M1575.0 1500.0L1575.0 1575.0L1650.0 1575.0L1650.0 1650.0L1575.0 1650.0L1575.0 1575.0L1500.0 1575.0L1500.0 1500.0Z" fill="#F4786E"/><path d="M1725.0 1650.0L1725.0 1575.0L1650.0 1575.0L1650.0 1500.0L1725.0 1500.0L1725.0 1575.0L1800.0 1575.0L1800.0 1650.0Z" fill="#A2218E"/><path d="M1800.0 1575.0L1875.0 1575.0L1875.0 1500.0L1950.0 1500.0L1950.0 1575.0L1875.0 1575.0L1875.0 1650.0L1800.0 1650.0Z" fill="#A2218E"/><path d="M2025.0 1500.0L2025.0 1575.0L2100.0 1575.0L2100.0 1650.0L2025.0 1650.0L2025.0 1575.0L1950.0 1575.0L1950.0 1500.0Z" fill="#A2218E"/><path d="M2100.0 1575.0L2175.0 1575.0L2175.0 1500.0L2250.0 1500.0L2250.0 1575.0L2175.0 1575.0L2175.0 1650.0L2100.0 1650.0Z" fill="#A2218E"/><path d="M2325.0 1650.0L2325.0 1575.0L2250.0 1575.0L2250.0 1500.0L2325.0 1500.0L2325.0 1575.0L2400.0 1575.0L2400.0 1650.0Z" fill="#A2218E"/></svg>